<?xml version="1.0" encoding="UTF-8"?>
<svg width="24px" height="24px" viewBox="0 0 24 24" version="1.1" xmlns="http://www.w3.org/2000/svg" xmlns:xlink="http://www.w3.org/1999/xlink">
    <title>F3E792B2-7C58-4B3E-9CDC-4A7E1F0EEC58</title>
    <g id="Homepage--Desktop" stroke="none" stroke-width="1" fill="none" fill-rule="evenodd">
        <g id="2.-Home---English-Desktop" transform="translate(-1201.000000, -161.000000)" fill-rule="nonzero">
            <g id="flag/united-states" transform="translate(1201.000000, 161.000000)">
                <circle id="Oval" fill="#F0F0F0" cx="12" cy="12" r="12"></circle>
                <g id="Group" transform="translate(0.375000, 2.578125)" fill="#D80027">
                    <path d="M11.1032813,9.421875 L23.625,9.421875 C23.625,8.33878125 23.480625,7.28953125 23.2116094,6.29142187 L11.1032813,6.29142187 L11.1032813,9.421875 Z" id="Path"></path>
                    <path d="M11.1032813,3.16101563 L21.8637188,3.16101563 C21.1291406,1.96232812 20.1899062,0.9028125 19.0948125,0.0305625 L11.1032813,0.0305625 L11.1032813,3.16101563 Z" id="Path"></path>
                    <path d="M11.625,21.421875 C14.4491719,21.421875 17.0449687,20.44575 19.0948125,18.8131875 L4.1551875,18.8131875 C6.20503125,20.44575 8.80082813,21.421875 11.625,21.421875 Z" id="Path"></path>
                    <path d="M1.38628125,15.6827344 L21.8637188,15.6827344 C22.4534531,14.7204375 22.9108125,13.6685625 23.2116094,12.5522813 L0.038390625,12.5522813 C0.3391875,13.6685625 0.796546875,14.7204375 1.38628125,15.6827344 Z" id="Path"></path>
                </g>
                <path d="M5.558625,1.87396875 L6.65217188,1.87396875 L5.63498438,2.61295313 L6.02353125,3.8086875 L5.00639063,3.06970313 L3.98925,3.8086875 L4.324875,2.77570312 C3.42928125,3.52171875 2.6443125,4.39575 1.9974375,5.369625 L2.34782813,5.369625 L1.70034375,5.84001563 C1.59946875,6.00829687 1.50271875,6.17925 1.41,6.35273438 L1.7191875,7.30434375 L1.14234375,6.88523437 C0.998953125,7.18903125 0.867796875,7.49967187 0.74990625,7.81678125 L1.09054688,8.86528125 L2.34782813,8.86528125 L1.33064063,9.60426562 L1.7191875,10.8 L0.702046875,10.0610156 L0.092765625,10.5037031 C0.03178125,10.9939219 0,11.4932344 0,12 L12,12 C12,5.372625 12,4.5913125 12,0 C9.6294375,0 7.41960938,0.68765625 5.558625,1.87396875 Z M6.02353125,10.8 L5.00639063,10.0610156 L3.98925,10.8 L4.37779688,9.60426563 L3.36060938,8.86528125 L4.61789063,8.86528125 L5.00639062,7.66954688 L5.39489063,8.86528125 L6.65217187,8.86528125 L5.63498437,9.60426563 L6.02353125,10.8 Z M5.63498438,6.10860938 L6.02353125,7.30434375 L5.00639062,6.56535938 L3.98925,7.30434375 L4.37779687,6.10860938 L3.36060937,5.369625 L4.61789062,5.369625 L5.00639062,4.17389063 L5.39489062,5.369625 L6.65217187,5.369625 L5.63498438,6.10860938 Z M10.327875,10.8 L9.31073437,10.0610156 L8.29359375,10.8 L8.68214062,9.60426563 L7.66495313,8.86528125 L8.92223438,8.86528125 L9.31073438,7.66954688 L9.69923438,8.86528125 L10.9565156,8.86528125 L9.93932813,9.60426563 L10.327875,10.8 Z M9.93932812,6.10860938 L10.327875,7.30434375 L9.31073437,6.56535938 L8.29359375,7.30434375 L8.68214062,6.10860938 L7.66495312,5.369625 L8.92223437,5.369625 L9.31073437,4.17389063 L9.69923437,5.369625 L10.9565156,5.369625 L9.93932812,6.10860938 Z M9.93932812,2.61295313 L10.327875,3.8086875 L9.31073437,3.06970313 L8.29359375,3.8086875 L8.68214062,2.61295312 L7.66495313,1.87396875 L8.92223438,1.87396875 L9.31073438,0.678234375 L9.69923438,1.87396875 L10.9565156,1.87396875 L9.93932812,2.61295313 Z" id="Shape" fill="#0052B4"></path>
            </g>
        </g>
    </g>
</svg>