<svg width="32" height="32" viewBox="0 0 32 32" fill="none" xmlns="http://www.w3.org/2000/svg">
    <rect width="32" height="32" rx="16" fill="#313435"/>
    <path d="M16.003 12.406a3.585 3.585 0 0 0-3.59 3.591 3.585 3.585 0 0 0 3.59 3.59 3.585 3.585 0 0 0 3.59-3.59 3.585 3.585 0 0 0-3.59-3.59zm0 5.925a2.339 2.339 0 0 1-2.334-2.334 2.337 2.337 0 0 1 2.334-2.334 2.337 2.337 0 0 1 2.334 2.334 2.339 2.339 0 0 1-2.334 2.334zm4.575-6.072a.836.836 0 0 1-.837.838.838.838 0 1 1 .837-.838zm2.378.85c-.053-1.121-.31-2.115-1.131-2.934-.819-.819-1.813-1.075-2.934-1.131-1.157-.066-4.622-.066-5.778 0-1.12.053-2.113.31-2.935 1.128-.822.819-1.075 1.813-1.131 2.934-.066 1.157-.066 4.622 0 5.778.053 1.122.31 2.116 1.131 2.935.822.819 1.813 1.075 2.934 1.131 1.157.066 4.622.066 5.779 0 1.122-.053 2.115-.31 2.934-1.131.819-.819 1.075-1.813 1.131-2.934.066-1.157.066-4.62 0-5.776zm-1.494 7.016a2.363 2.363 0 0 1-1.33 1.331c-.923.366-3.11.282-4.129.282-1.019 0-3.21.08-4.128-.282a2.363 2.363 0 0 1-1.331-1.33c-.366-.923-.282-3.11-.282-4.129 0-1.019-.08-3.21.282-4.128a2.363 2.363 0 0 1 1.331-1.331c.922-.366 3.11-.282 4.128-.282 1.019 0 3.21-.08 4.128.282a2.363 2.363 0 0 1 1.331 1.33c.366.923.282 3.11.282 4.129 0 1.019.084 3.21-.282 4.128z" fill="#fff"/>
</svg>
