<svg width="32" height="32" viewBox="0 0 32 32" fill="none" xmlns="http://www.w3.org/2000/svg">
    <rect width="32" height="32" rx="16" fill="#313435"/>
    <path d="M22.355 12.741c.01.142.01.284.01.426 0 4.335-3.299 9.33-9.33 9.33A9.266 9.266 0 0 1 8 21.025c.264.03.518.04.792.04a6.568 6.568 0 0 0 4.07-1.4 3.285 3.285 0 0 1-3.065-2.274c.203.03.406.05.62.05.294 0 .588-.04.862-.111a3.28 3.28 0 0 1-2.63-3.218v-.041c.437.244.945.396 1.483.416a3.277 3.277 0 0 1-1.462-2.73c0-.61.162-1.168.447-1.656a9.32 9.32 0 0 0 6.761 3.432 3.706 3.706 0 0 1-.081-.751 3.278 3.278 0 0 1 3.28-3.28c.943 0 1.796.396 2.395 1.036a6.458 6.458 0 0 0 2.081-.792 3.27 3.27 0 0 1-1.441 1.807c.66-.07 1.3-.254 1.888-.507a7.048 7.048 0 0 1-1.645 1.695z" fill="#fff"/>
</svg>
