<svg xmlns="http://www.w3.org/2000/svg" width="343" height="269" viewBox="0 0 343 269">
    <defs>
        <linearGradient id="lbvqxo7ofa" x1="50%" x2="50%" y1="0%" y2="100%">
            <stop offset="0%" stop-color="#3597B2"/>
            <stop offset="100%" stop-color="#00708E"/>
        </linearGradient>
        <linearGradient id="dsg8zurvfb" x1="50%" x2="50%" y1="0%" y2="100%">
            <stop offset="0%" stop-color="#3597B2"/>
            <stop offset="100%" stop-color="#00708E"/>
        </linearGradient>
        <radialGradient id="92r3rk6h4c" cx="50%" cy="26.892%" r="74.456%" fx="50%" fy="26.892%" gradientTransform="translate(0.500000,0.268925),scale(0.902778,1.000000),rotate(90.000000),translate(-0.500000,-0.268925)">
            <stop offset="0%" stop-color="#FFF17B"/>
            <stop offset="100%" stop-color="#FFDF45"/>
        </radialGradient>
    </defs>
    <g fill="none" fill-rule="evenodd">
        <g>
            <g transform="translate(-562.000000, -145.000000) translate(491.000000, 45.000000)">
                <path fill="#D4E9EF" d="M324.326 146.498c26.994 36.243 60.055 70.833 56.395 115.899-4.308 53.042-26.362 113.244-76.45 131.017-47.838 16.975-89.735-30.406-133.22-56.617-35.58-21.447-78.09-37.652-89.511-77.638-11.988-41.967 8.331-84.04 33.063-119.984 27.822-40.434 60.443-88.842 109.446-87.13 48.248 1.684 71.412 55.698 100.277 94.453z" transform="translate(229.500000, 224.500000) rotate(-54.000000) translate(-229.500000, -224.500000)"/>
                <path fill="#BBDCFF" fill-rule="nonzero" d="M289.701 235H230v61h59.701c9.54 0 17.299-7.749 17.299-17.272v-26.456c-.001-9.523-7.761-17.272-17.299-17.272z"/>
                <rect width="131" height="46" x="164" y="244" fill="#FFF" rx="2"/>
                <path fill="url(#lbvqxo7ofa)" fill-rule="nonzero" d="M289.701 235H170.297C160.76 235 153 242.749 153 252.272v26.456c0 9.523 7.76 17.272 17.297 17.272h119.404c9.54 0 17.299-7.749 17.299-17.272v-26.456c0-9.523-7.761-17.272-17.299-17.272zm-95.973 33.47l-1.297.42.802 1.102c1.613 2.217 1.12 5.32-1.1 6.931-.88.64-1.904.948-2.916.948-1.537 0-3.052-.709-4.025-2.046l-.8-1.102-.803 1.102c-.971 1.337-2.486 2.046-4.023 2.046-1.013 0-2.035-.308-2.916-.948-2.222-1.61-2.713-4.714-1.1-6.93l.8-1.103-1.295-.42c-2.61-.847-4.038-3.646-3.19-6.252.848-2.607 3.65-4.033 6.26-3.186l1.297.42v-1.36c0-2.74 2.225-4.962 4.97-4.962 2.744 0 4.969 2.222 4.969 4.962v1.36l1.296-.42c2.61-.847 5.413.58 6.262 3.186.847 2.606-.581 5.405-3.19 6.251zm30.406 0l-1.297.42.802 1.102c1.613 2.217 1.12 5.32-1.1 6.931-.881.64-1.904.948-2.916.948-1.537 0-3.052-.709-4.025-2.046l-.8-1.1-.803 1.1c-.972 1.337-2.487 2.046-4.024 2.046-1.013 0-2.035-.308-2.916-.948-2.221-1.61-2.713-4.714-1.1-6.93l.802-1.103-1.297-.42c-2.61-.847-4.038-3.646-3.19-6.252.849-2.607 3.65-4.033 6.262-3.186l1.296.42v-1.36c0-2.74 2.225-4.962 4.97-4.962 2.743 0 4.968 2.222 4.968 4.962v1.36l1.297-.42c2.61-.847 5.414.58 6.262 3.186.847 2.606-.581 5.405-3.19 6.251zm30.406 0l-1.298.42.802 1.102c1.614 2.217 1.12 5.32-1.1 6.931-.88.64-1.904.948-2.915.948-1.537 0-3.052-.709-4.025-2.046l-.801-1.1-.802 1.1c-.972 1.337-2.487 2.046-4.024 2.046-1.013 0-2.035-.308-2.916-.948-2.221-1.61-2.713-4.714-1.1-6.93l.801-1.103-1.296-.42c-2.61-.847-4.038-3.646-3.19-6.252.848-2.607 3.65-4.033 6.261-3.186l1.297.42v-1.36c0-2.74 2.225-4.962 4.969-4.962s4.97 2.222 4.97 4.962v1.36l1.295-.42c2.611-.847 5.413.58 6.262 3.186.848 2.606-.58 5.405-3.19 6.251zm30.405 0l-1.296.42.801 1.102c1.613 2.217 1.122 5.32-1.1 6.931-.88.64-1.903.948-2.916.948-1.537 0-3.052-.709-4.025-2.046l-.8-1.102-.801 1.102c-.973 1.337-2.488 2.046-4.025 2.046-1.012 0-2.034-.308-2.916-.948-2.22-1.61-2.713-4.714-1.1-6.93l.802-1.103-1.297-.42c-2.61-.847-4.038-3.646-3.19-6.252.848-2.607 3.651-4.033 6.26-3.186l1.297.42v-1.36c0-2.74 2.225-4.962 4.97-4.962 2.745 0 4.969 2.222 4.969 4.962v1.36l1.296-.42c2.61-.847 5.414.58 6.262 3.186.849 2.606-.581 5.405-3.19 6.251z"/>
                <path fill="url(#dsg8zurvfb)" fill-rule="nonzero" d="M289.701 235H230v61h59.701c9.54 0 17.299-7.749 17.299-17.272v-26.456c-.001-9.523-7.761-17.272-17.299-17.272zm-35.161 33.47l-1.298.42.802 1.102c1.614 2.217 1.12 5.32-1.1 6.931-.88.64-1.904.948-2.915.948-1.537 0-3.052-.709-4.025-2.046l-.801-1.1-.802 1.1c-.972 1.337-2.487 2.046-4.024 2.046-1.013 0-2.035-.308-2.916-.948-2.221-1.61-2.713-4.714-1.1-6.93l.801-1.103-1.296-.42c-2.61-.847-4.038-3.646-3.19-6.252.848-2.607 3.65-4.033 6.261-3.186l1.297.42v-1.36c0-2.74 2.225-4.962 4.969-4.962s4.97 2.222 4.97 4.962v1.36l1.295-.42c2.611-.847 5.413.58 6.262 3.186.848 2.606-.58 5.405-3.19 6.251zm30.405 0l-1.296.42.801 1.102c1.613 2.217 1.122 5.32-1.1 6.931-.88.64-1.903.948-2.916.948-1.537 0-3.052-.709-4.025-2.046l-.8-1.102-.801 1.102c-.973 1.337-2.488 2.046-4.025 2.046-1.012 0-2.034-.308-2.916-.948-2.22-1.61-2.713-4.714-1.1-6.93l.802-1.103-1.297-.42c-2.61-.847-4.038-3.646-3.19-6.252.848-2.607 3.651-4.033 6.26-3.186l1.297.42v-1.36c0-2.74 2.225-4.962 4.97-4.962 2.745 0 4.969 2.222 4.969 4.962v1.36l1.296-.42c2.61-.847 5.414.58 6.262 3.186.849 2.606-.581 5.405-3.19 6.251z"/>
                <path fill="#BBDCFF" fill-rule="nonzero" d="M248.04 170c-2.742 0-4.963-2.216-4.963-4.948v-15.616c0-7.466-6.091-13.54-13.576-13.54-7.487 0-13.577 6.074-13.577 13.54v15.616c0 2.732-2.222 4.948-4.962 4.948-2.74 0-4.962-2.216-4.962-4.948v-15.616C206 136.513 216.542 126 229.5 126s23.5 10.513 23.5 23.436v15.616c0 2.732-2.22 4.948-4.96 4.948z"/>
                <path fill="#BBDCFF" fill-rule="nonzero" d="M230 135.897c7.326 0 13.288 6.073 13.288 13.539v15.616c0 2.732 2.173 4.948 4.857 4.948 2.681 0 4.855-2.216 4.855-4.948v-15.616C253 136.513 242.682 126 230 126v9.897z"/>
                <path fill="url(#92r3rk6h4c)" fill-rule="nonzero" d="M254.504 160h-49.007c-6.339 0-11.497 5.19-11.497 11.57v41.86c0 6.38 5.158 11.57 11.497 11.57h49.007c6.34 0 11.496-5.19 11.496-11.57v-41.86c0-6.38-5.157-11.57-11.496-11.57z"/>
                <path fill="#FFAD36" fill-rule="nonzero" d="M238 188.704c0-4.255-3.582-7.704-8-7.704s-8 3.449-8 7.704c0 2.368 1.111 4.485 2.857 5.9v4.444c0 2.736 2.304 4.952 5.144 4.952 2.84 0 5.143-2.216 5.143-4.952v-4.444c1.746-1.414 2.856-3.532 2.856-5.9z"/>
                <path fill="#FFA100" fill-rule="nonzero" d="M234.5 199.048v-4.444c1.529-1.414 2.5-3.532 2.5-5.9 0-4.255-3.134-7.704-7-7.704v23c2.485 0 4.5-2.216 4.5-4.952z"/>
            </g>
        </g>
    </g>
</svg>
