<svg xmlns="http://www.w3.org/2000/svg" width="65" height="65" viewBox="0 0 85 85">
    <defs>
        <filter id="mbqyqnguoa" width="128.2%" height="128.2%" x="-14.1%" y="-14.1%" filterUnits="objectBoundingBox">
            <feOffset dy="2" in="SourceAlpha" result="shadowOffsetOuter1"/>
            <feGaussianBlur in="shadowOffsetOuter1" result="shadowBlurOuter1" stdDeviation="2"/>
            <feColorMatrix in="shadowBlurOuter1" result="shadowMatrixOuter1" values="0 0 0 0 0 0 0 0 0 0 0 0 0 0 0 0 0 0 0.5 0"/>
            <feMerge>
                <feMergeNode in="shadowMatrixOuter1"/>
                <feMergeNode in="SourceGraphic"/>
            </feMerge>
        </filter>
    </defs>
    <g fill="none" fill-rule="evenodd">
        <g fill-rule="nonzero">
            <g>
                <g filter="url(#mbqyqnguoa)" transform="translate(-1303 -3271) translate(1044 3219) translate(259 52)">
                    <path fill="#ECEFF1" d="M66.834 18.077c-6.512-6.295-15.08-9.851-24.206-9.851-26.19 0-42.636 28.376-29.558 50.948l-4.844 17.6 18.093-4.718c7.883 4.258 14.341 3.881 16.326 4.133 30.37 0 45.487-36.742 24.146-58l.043-.112z"/>
                    <path fill="#4CAF50" d="M42.502 70.376l-.018-.003h-.046c-9.22 0-15.11-4.385-15.69-4.639l-10.865 2.838 2.912-10.608-.693-1.091c-2.868-4.587-4.392-9.869-4.392-15.308 0-25.59 31.133-38.387 49.15-20.3 17.973 17.899 5.354 49.111-20.358 49.111z"/>
                    <path fill="#FAFAFA" d="M59.482 49.214l-.026.214c-.86-.428-5.053-2.475-5.834-2.758-1.753-.648-1.258-.102-4.624 3.746-.5.556-.999.6-1.848.214-.858-.428-3.612-1.328-6.872-4.24-2.54-2.269-4.245-5.052-4.748-5.909-.838-1.444.915-1.65 2.511-4.664.286-.6.14-1.071-.071-1.496-.215-.429-1.922-4.625-2.637-6.298-.687-1.667-1.393-1.456-1.922-1.456-1.647-.143-2.851-.12-3.912.982-4.616 5.065-3.452 10.289.497 15.844 7.762 10.14 11.897 12.007 19.46 14.6 2.041.647 3.903.556 5.376.345 1.641-.26 5.053-2.058 5.765-4.071.73-2.013.73-3.683.515-4.068-.211-.386-.772-.6-1.63-.985z"/>
                </g>
            </g>
        </g>
    </g>
</svg>
