<svg xmlns="http://www.w3.org/2000/svg" width="24" height="24" viewBox="0 0 24 24">
    <g fill="none" fill-rule="evenodd">
        <g fill-rule="nonzero">
            <g>
                <g>
                    <g>
                        <path fill="#00708E" d="M11.972 0c6.612 0 11.972 5.36 11.972 11.972 0 6.612-5.36 11.972-11.972 11.972C5.36 23.944 0 18.584 0 11.972 0 5.36 5.36 0 11.972 0z" transform="translate(-72.000000, -968.000000) translate(0.000000, 254.000000) translate(24.000000, 714.000000) translate(48.000000, 0.000000)"/>
                        <path fill="#FFF" d="M19.457 8.065c-.523.226-1.086.378-1.676.447.603-.35 1.065-.905 1.283-1.567-.564.325-1.188.56-1.853.687-.532-.55-1.29-.893-2.13-.893-1.61 0-2.917 1.267-2.917 2.83 0 .223.026.439.076.646-2.424-.118-4.575-1.246-6.013-2.958-.251.418-.395.903-.395 1.423 0 .981.515 1.85 1.297 2.356-.478-.015-.927-.141-1.322-.355v.036c0 1.373 1.006 2.517 2.34 2.777-.244.064-.501.1-.768.1-.188 0-.37-.018-.548-.051.37 1.125 1.448 1.944 2.726 1.966-1 .76-2.257 1.212-3.624 1.212-.236 0-.468-.013-.697-.04 1.292.804 2.825 1.273 4.473 1.273 5.367 0 8.301-4.316 8.301-8.057l-.008-.366c.569-.399 1.063-.897 1.455-1.466z" transform="translate(-72.000000, -968.000000) translate(0.000000, 254.000000) translate(24.000000, 714.000000) translate(48.000000, 0.000000)"/>
                    </g>
                </g>
            </g>
        </g>
    </g>
</svg>
